<svg width="32" height="32" viewBox="0 0 32 32" fill="none" xmlns="http://www.w3.org/2000/svg">
<g clip-path="url(#clip0_65_98)">
<path d="M0 3C0 1.34315 1.34315 0 3 0H29C30.6569 0 32 1.34315 32 3V29C32 30.6569 30.6569 32 29 32H3C1.34315 32 0 30.6569 0 29V3Z" fill="#020100"/>
<path d="M18.4844 24.5635L16.0479 27L13.6113 24.5635L16.0479 22.127L18.4844 24.5635Z" fill="white"/>
<path d="M11.082 24.5635H7.63574V21.1172H11.082V24.5635Z" fill="white"/>
<path d="M24.5322 24.5635H21.0869V21.1172H24.5322V24.5635Z" fill="white"/>
<path d="M17.5078 20.4307L16.0459 21.8926L14.584 20.4307L16.0459 18.9688L17.5078 20.4307Z" fill="white"/>
<path d="M13.1973 20.8887H11.1299V18.8213H13.1973V20.8887Z" fill="white"/>
<path d="M20.9258 20.8877H18.8584V18.8193H20.9258V20.8877Z" fill="white"/>
<path d="M16.8584 17.9258L16.0459 18.7383L15.2344 17.9258L16.0459 17.1143L16.8584 17.9258Z" fill="white"/>
<path d="M14.4766 18.5898H13.3281V17.4414H14.4766V18.5898Z" fill="white"/>
<path d="M18.6953 18.5898H17.5459V17.4414H18.6953V18.5898Z" fill="white"/>
<path d="M9.87305 15.958L7.43652 18.3945L5 15.958L7.43652 13.5215L9.87305 15.958Z" fill="white"/>
<path d="M27.0918 15.9561L24.6553 18.3936L22.2188 15.9561L24.6553 13.5195L27.0918 15.9561Z" fill="white"/>
<path d="M13.041 15.958L11.5791 17.4199L10.1172 15.958L11.5791 14.4961L13.041 15.958Z" fill="white"/>
<path d="M21.9746 15.957L20.5127 17.4189L19.0508 15.957L20.5127 14.4941L21.9746 15.957Z" fill="white"/>
<path d="M14.9443 15.958L14.1318 16.7705L13.3203 15.958L14.1318 15.1455L14.9443 15.958Z" fill="white"/>
<path d="M18.7744 15.957L17.9619 16.7695L17.1494 15.957L17.9619 15.1445L18.7744 15.957Z" fill="white"/>
<path d="M16.6211 16.5742H15.4727V15.4258H16.6211V16.5742Z" fill="white"/>
<path d="M16.8584 14.0742L16.0459 14.8857L15.2344 14.0742L16.0459 13.2617L16.8584 14.0742Z" fill="white"/>
<path d="M18.6953 14.5596H17.5459V13.4102H18.6953V14.5596Z" fill="white"/>
<path d="M14.4766 14.5586H13.3281V13.4102H14.4766V14.5586Z" fill="white"/>
<path d="M20.9258 13.1807H18.8584V11.1133H20.9258V13.1807Z" fill="white"/>
<path d="M13.1973 13.1787H11.1299V11.1113H13.1973V13.1787Z" fill="white"/>
<path d="M17.5078 11.5693L16.0459 13.0312L14.584 11.5693L16.0459 10.1074L17.5078 11.5693Z" fill="white"/>
<path d="M11.082 10.8828H7.63574V7.43652H11.082V10.8828Z" fill="white"/>
<path d="M24.5322 10.8828H21.0869V7.43652H24.5322V10.8828Z" fill="white"/>
<path d="M18.4844 7.43652L16.0479 9.87305L13.6113 7.43652L16.0479 5L18.4844 7.43652Z" fill="white"/>
</g>
<defs>
<clipPath id="clip0_65_98">
<rect width="32" height="32" fill="white"/>
</clipPath>
</defs>
</svg>
