<svg width="394" height="392" viewBox="0 0 394 392" fill="none" xmlns="http://www.w3.org/2000/svg">
<rect x="186.545" y="185.706" width="20.4612" height="20.4612" fill="white"/>
<rect x="230.881" y="180.705" width="20.4612" height="20.4612" transform="rotate(45 230.881 180.705)" fill="white"/>
<rect width="20.4612" height="20.4612" transform="matrix(-0.707107 0.707107 0.707107 0.707107 162.663 180.725)" fill="white"/>
<rect x="276.328" y="169.122" width="36.8301" height="36.8301" transform="rotate(45 276.328 169.122)" fill="white"/>
<rect width="36.8301" height="36.8301" transform="matrix(-0.707107 0.707107 0.707107 0.707107 117.197 169.15)" fill="white"/>
<rect x="350.121" y="151.767" width="61.3836" height="61.3836" transform="rotate(45 350.121 151.767)" fill="white"/>
<rect width="61.3836" height="61.3836" transform="matrix(-0.707107 0.707107 0.707107 0.707107 43.4053 151.785)" fill="white"/>
<rect x="182.308" y="161.636" width="20.4612" height="20.4612" transform="rotate(-45 182.308 161.636)" fill="white"/>
<rect x="223.479" y="149.817" width="20.4612" height="20.4612" fill="white"/>
<rect x="170.725" y="117.018" width="36.8301" height="36.8301" transform="rotate(-45 170.725 117.018)" fill="white"/>
<rect x="246.853" y="108.891" width="36.8301" height="36.8301" fill="white"/>
<rect x="153.378" y="43.4043" width="61.3836" height="61.3836" transform="rotate(-45 153.378 43.4043)" fill="white"/>
<rect x="286.556" y="43.4043" width="61.3836" height="61.3836" fill="white"/>
<rect width="20.4612" height="20.4612" transform="matrix(1 -2.18557e-08 -2.18557e-08 -1 148.33 170.271)" fill="white"/>
<rect width="36.8301" height="36.8301" transform="matrix(-1 -1.48296e-07 -1.48296e-07 1 146.014 108.862)" fill="white"/>
<rect width="61.3836" height="61.3836" transform="matrix(-1 -1.48296e-07 -1.48296e-07 1 108.326 43.4043)" fill="white"/>
<rect width="20.4612" height="20.4612" transform="matrix(0.707107 0.707107 0.707107 -0.707107 182.308 230.259)" fill="white"/>
<rect width="20.4612" height="20.4612" transform="matrix(1 -3.39767e-08 -3.39767e-08 -1 223.479 242.077)" fill="white"/>
<rect width="36.8301" height="36.8301" transform="matrix(0.707107 0.707107 0.707107 -0.707107 170.725 274.868)" fill="white"/>
<rect width="36.8301" height="36.8301" transform="matrix(1 -3.39767e-08 -3.39767e-08 -1 246.853 282.995)" fill="white"/>
<rect width="61.3836" height="61.3836" transform="matrix(0.707107 0.707107 0.707107 -0.707107 153.378 348.481)" fill="white"/>
<rect width="61.3836" height="61.3836" transform="matrix(1 -3.39767e-08 -3.39767e-08 -1 286.556 348.481)" fill="white"/>
<rect x="148.33" y="221.613" width="20.4612" height="20.4612" fill="white"/>
<rect x="146.014" y="283.032" width="36.8301" height="36.8301" transform="rotate(180 146.014 283.032)" fill="white"/>
<rect x="108.326" y="348.481" width="61.3836" height="61.3836" transform="rotate(180 108.326 348.481)" fill="white"/>
</svg>
