<svg width="1436" height="392" viewBox="0 0 1436 392" fill="none" xmlns="http://www.w3.org/2000/svg">
<rect x="186.545" y="185.707" width="20.4612" height="20.4612" fill="white"/>
<rect x="230.881" y="180.706" width="20.4612" height="20.4612" transform="rotate(45 230.881 180.706)" fill="white"/>
<rect width="20.4612" height="20.4612" transform="matrix(-0.707107 0.707107 0.707107 0.707107 162.663 180.725)" fill="white"/>
<rect x="276.328" y="169.123" width="36.8301" height="36.8301" transform="rotate(45 276.328 169.123)" fill="white"/>
<rect width="36.8301" height="36.8301" transform="matrix(-0.707107 0.707107 0.707107 0.707107 117.197 169.151)" fill="white"/>
<rect x="350.12" y="151.768" width="61.3836" height="61.3836" transform="rotate(45 350.12 151.768)" fill="white"/>
<rect width="61.3836" height="61.3836" transform="matrix(-0.707107 0.707107 0.707107 0.707107 43.4053 151.786)" fill="white"/>
<rect x="182.308" y="161.637" width="20.4612" height="20.4612" transform="rotate(-45 182.308 161.637)" fill="white"/>
<rect x="223.479" y="149.818" width="20.4612" height="20.4612" fill="white"/>
<rect x="170.725" y="117.019" width="36.8301" height="36.8301" transform="rotate(-45 170.725 117.019)" fill="white"/>
<rect x="246.853" y="108.892" width="36.8301" height="36.8301" fill="white"/>
<rect x="153.378" y="43.4043" width="61.3836" height="61.3836" transform="rotate(-45 153.378 43.4043)" fill="white"/>
<rect x="286.555" y="43.4043" width="61.3836" height="61.3836" fill="white"/>
<rect width="20.4612" height="20.4612" transform="matrix(1 -2.18557e-08 -2.18557e-08 -1 148.33 170.271)" fill="white"/>
<rect width="36.8301" height="36.8301" transform="matrix(-1 -1.48296e-07 -1.48296e-07 1 146.014 108.863)" fill="white"/>
<rect width="61.3836" height="61.3836" transform="matrix(-1 -1.48296e-07 -1.48296e-07 1 108.327 43.4043)" fill="white"/>
<rect width="20.4612" height="20.4612" transform="matrix(0.707107 0.707107 0.707107 -0.707107 182.308 230.259)" fill="white"/>
<rect width="20.4612" height="20.4612" transform="matrix(1 -3.39767e-08 -3.39767e-08 -1 223.479 242.077)" fill="white"/>
<rect width="36.8301" height="36.8301" transform="matrix(0.707107 0.707107 0.707107 -0.707107 170.725 274.868)" fill="white"/>
<rect width="36.8301" height="36.8301" transform="matrix(1 -3.39767e-08 -3.39767e-08 -1 246.853 282.995)" fill="white"/>
<rect width="61.3836" height="61.3836" transform="matrix(0.707107 0.707107 0.707107 -0.707107 153.378 348.481)" fill="white"/>
<rect width="61.3836" height="61.3836" transform="matrix(1 -3.39767e-08 -3.39767e-08 -1 286.555 348.481)" fill="white"/>
<rect x="148.33" y="221.614" width="20.4612" height="20.4612" fill="white"/>
<rect x="146.014" y="283.032" width="36.8301" height="36.8301" transform="rotate(180 146.014 283.032)" fill="white"/>
<rect x="108.327" y="348.481" width="61.3836" height="61.3836" transform="rotate(180 108.327 348.481)" fill="white"/>
<path d="M532.925 262.637C501.908 262.637 482.849 247.689 479.486 221.156C479.299 219.661 480.233 218.913 481.541 218.913H503.403C504.524 218.913 505.271 219.474 505.458 220.595C507.887 235.356 516.295 241.896 532.738 241.896C546.565 241.896 554.787 235.543 554.787 224.706C554.787 215.176 549.555 210.692 536.289 208.45L520.033 205.647C494.434 201.349 481.728 189.017 481.728 167.903C481.728 143.612 498.918 129.225 528.441 129.225C557.216 129.225 575.154 143.425 578.704 168.09C578.891 169.398 577.957 170.145 576.649 170.145H554.787C553.666 170.145 552.918 169.958 552.545 168.09C550.116 155.571 542.268 149.965 528.815 149.965C515.548 149.965 508.261 155.384 508.261 166.034C508.261 175.377 514.427 180.796 528.254 183.225L544.51 185.841C570.669 190.325 581.32 201.349 581.32 223.772C581.32 248.062 562.822 262.637 532.925 262.637Z" fill="white"/>
<path d="M658.055 262.637C621.619 262.637 603.307 245.073 603.307 208.45V132.588C603.307 131.28 604.055 130.533 605.363 130.533H627.785C628.906 130.533 629.654 131.28 629.654 132.588V208.823C629.654 231.059 638.996 241.522 658.055 241.522C677.114 241.522 686.27 231.059 686.27 208.823V132.588C686.27 131.28 687.204 130.533 688.325 130.533H710.747C712.055 130.533 712.803 131.28 712.803 132.588V208.45C712.803 245.073 694.491 262.637 658.055 262.637Z" fill="white"/>
<path d="M739.472 261.329C738.164 261.329 737.417 260.581 737.417 259.273V132.588C737.417 131.28 738.164 130.533 739.472 130.533H764.697C765.632 130.533 766.566 130.906 767.126 132.027L821.5 221.903H822.435V132.588C822.435 131.28 823.182 130.533 824.49 130.533H845.417C846.725 130.533 847.473 131.28 847.473 132.588V259.273C847.473 260.581 846.725 261.329 845.417 261.329H820.192C819.258 261.329 818.324 260.955 817.763 259.834L763.203 169.585H762.455V259.273C762.455 260.581 761.708 261.329 760.4 261.329H739.472Z" fill="white"/>
<path d="M874.041 261.329C872.733 261.329 871.985 260.581 871.985 259.273V132.588C871.985 131.28 872.733 130.533 874.041 130.533H905.058C905.992 130.533 907.113 130.906 907.487 132.214L940.747 223.958H941.494L974.193 132.214C974.567 130.906 975.688 130.533 976.622 130.533H1008.39C1009.69 130.533 1010.44 131.28 1010.44 132.588V259.273C1010.44 260.581 1009.69 261.329 1008.39 261.329H986.712C985.404 261.329 984.657 260.581 984.657 259.273V166.034H983.909L951.21 259.647C950.837 260.768 949.902 261.329 948.781 261.329H932.899C931.778 261.329 930.844 260.768 930.47 259.647L897.771 166.034H897.023V259.273C897.023 260.581 896.276 261.329 894.968 261.329H874.041Z" fill="white"/>
<path d="M1094.24 262.662C1055.75 262.662 1030.9 236.502 1030.9 196.329C1030.9 155.783 1055.94 129.25 1094.24 129.25C1132.55 129.25 1157.4 155.783 1157.4 196.329C1157.4 236.316 1132.55 262.662 1094.24 262.662ZM1057.8 196.329C1057.8 224.544 1071.45 241.547 1094.24 241.547C1117.04 241.547 1130.49 224.544 1130.49 196.329C1130.49 167.554 1116.85 150.364 1094.24 150.364C1071.45 150.364 1057.8 167.554 1057.8 196.329Z" fill="white"/>
<path d="M1241.41 262.637C1202.91 262.637 1178.06 236.477 1178.06 196.304C1178.06 155.758 1203.1 129.225 1241.41 129.225C1279.71 129.225 1304.56 155.758 1304.56 196.304C1304.56 236.291 1279.71 262.637 1241.41 262.637ZM1204.97 196.304C1204.97 224.519 1218.61 241.522 1241.41 241.522C1264.2 241.522 1277.65 224.519 1277.65 196.304C1277.65 167.529 1264.01 150.339 1241.41 150.339C1218.61 150.339 1204.97 167.529 1204.97 196.304Z" fill="white"/>
<path d="M1327.13 261.329C1325.82 261.329 1325.07 260.581 1325.07 259.273V132.588C1325.07 131.28 1325.82 130.533 1327.13 130.533H1352.35C1353.28 130.533 1354.22 130.906 1354.78 132.027L1409.15 221.903H1410.09V132.588C1410.09 131.28 1410.83 130.533 1412.14 130.533H1433.07C1434.38 130.533 1435.13 131.28 1435.13 132.588V259.273C1435.13 260.581 1434.38 261.329 1433.07 261.329H1407.85C1406.91 261.329 1405.98 260.955 1405.42 259.834L1350.86 169.585H1350.11V259.273C1350.11 260.581 1349.36 261.329 1348.05 261.329H1327.13Z" fill="white"/>
</svg>
