<svg width="956" height="134" viewBox="0 0 956 134" fill="none" xmlns="http://www.w3.org/2000/svg">
<g clip-path="url(#clip0_1_2775)">
<path d="M53.4634 133.412C22.446 133.412 3.38714 118.464 0.0238082 91.931C-0.163044 90.4362 0.771214 89.6888 2.07918 89.6888H23.9408C25.0619 89.6888 25.8093 90.2493 25.9962 91.3704C28.4253 106.132 36.8336 112.672 53.2765 112.672C67.1035 112.672 75.325 106.319 75.325 95.4812C75.325 85.9517 70.0932 81.4673 56.8267 79.2251L40.5706 76.4223C14.9719 72.1247 2.26603 59.7925 2.26603 38.6783C2.26603 14.3876 19.4564 0 48.9789 0C77.7541 0 95.6918 14.2007 99.242 38.8651C99.4289 40.1731 98.4946 40.9205 97.1866 40.9205H75.325C74.2039 40.9205 73.4565 40.7337 73.0828 38.8651C70.6537 26.3461 62.8059 20.7405 49.3526 20.7405C36.0862 20.7405 28.799 26.1592 28.799 36.8098C28.799 46.1523 34.9651 51.571 48.7921 54.0001L65.0482 56.616C91.2074 61.1005 101.858 72.1247 101.858 94.5469C101.858 118.838 83.3596 133.412 53.4634 133.412Z" fill="white"/>
<path d="M178.593 133.412C142.157 133.412 123.846 115.848 123.846 79.2251V3.36333C123.846 2.05536 124.593 1.30796 125.901 1.30796H148.323C149.444 1.30796 150.192 2.05536 150.192 3.36333V79.5988C150.192 101.834 159.534 112.298 178.593 112.298C197.652 112.298 206.808 101.834 206.808 79.5988V3.36333C206.808 2.05536 207.742 1.30796 208.863 1.30796H231.285C232.593 1.30796 233.341 2.05536 233.341 3.36333V79.2251C233.341 115.848 215.029 133.412 178.593 133.412Z" fill="white"/>
<path d="M260.01 132.104C258.702 132.104 257.955 131.357 257.955 130.049V3.36333C257.955 2.05536 258.702 1.30796 260.01 1.30796H285.235C286.17 1.30796 287.104 1.68167 287.664 2.80277L342.038 92.6784H342.973V3.36333C342.973 2.05536 343.72 1.30796 345.028 1.30796H365.955C367.263 1.30796 368.011 2.05536 368.011 3.36333V130.049C368.011 131.357 367.263 132.104 365.955 132.104H340.73C339.796 132.104 338.862 131.73 338.301 130.609L283.741 40.3599H282.993V130.049C282.993 131.357 282.246 132.104 280.938 132.104H260.01Z" fill="white"/>
<path d="M394.579 132.104C393.271 132.104 392.523 131.357 392.523 130.049V3.36333C392.523 2.05536 393.271 1.30796 394.579 1.30796H425.596C426.53 1.30796 427.652 1.68167 428.025 2.98962L461.285 94.7338H462.032L494.731 2.98962C495.105 1.68167 496.226 1.30796 497.16 1.30796H528.925C530.233 1.30796 530.98 2.05536 530.98 3.36333V130.049C530.98 131.357 530.233 132.104 528.925 132.104H507.25C505.942 132.104 505.195 131.357 505.195 130.049V36.8098H504.448L471.749 130.422C471.375 131.544 470.441 132.104 469.319 132.104H453.437C452.316 132.104 451.382 131.544 451.008 130.422L418.309 36.8098H417.562V130.049C417.562 131.357 416.814 132.104 415.506 132.104H394.579Z" fill="white"/>
<path d="M614.779 133.437C576.288 133.437 551.436 107.278 551.436 67.1048C551.436 26.558 576.474 0.0250488 614.779 0.0250488C653.084 0.0250488 677.935 26.558 677.935 67.1048C677.935 107.091 653.084 133.437 614.779 133.437ZM578.343 67.1048C578.343 95.3194 591.983 112.323 614.779 112.323C637.575 112.323 651.028 95.3194 651.028 67.1048C651.028 38.3296 637.388 21.1393 614.779 21.1393C591.983 21.1393 578.343 38.3296 578.343 67.1048Z" fill="white"/>
<path d="M761.944 133.412C723.452 133.412 698.601 107.253 698.601 67.0797C698.601 26.5329 723.639 0 761.944 0C800.248 0 825.1 26.5329 825.1 67.0797C825.1 107.066 800.248 133.412 761.944 133.412ZM725.508 67.0797C725.508 95.2943 739.148 112.298 761.944 112.298C784.74 112.298 798.193 95.2943 798.193 67.0797C798.193 38.3046 784.553 21.1142 761.944 21.1142C739.148 21.1142 725.508 38.3046 725.508 67.0797Z" fill="white"/>
<path d="M847.663 132.104C846.355 132.104 845.608 131.357 845.608 130.049V3.36333C845.608 2.05536 846.355 1.30796 847.663 1.30796H872.888C873.822 1.30796 874.757 1.68167 875.317 2.80277L929.691 92.6784H930.625V3.36333C930.625 2.05536 931.373 1.30796 932.681 1.30796H953.608C954.916 1.30796 955.663 2.05536 955.663 3.36333V130.049C955.663 131.357 954.916 132.104 953.608 132.104H928.383C927.449 132.104 926.515 131.73 925.954 130.609L871.393 40.3599H870.646V130.049C870.646 131.357 869.899 132.104 868.591 132.104H847.663Z" fill="white"/>
</g>
<defs>
<clipPath id="clip0_1_2775">
<rect width="955.663" height="133.437" fill="white"/>
</clipPath>
</defs>
</svg>
