<svg width="68" height="16" viewBox="0 0 68 16" fill="none" xmlns="http://www.w3.org/2000/svg">
<path d="M5.18111 2.52627L5.18111 10.0326L5.96234 10.9475H10.0055L10.4699 10.2225L10.4699 2.52627L13.0602 0L14.9642 0L22.7749 9.66046V0L25.3653 0L27.9556 2.52627V4.10507L35.2949 4.10507V9.1576H31.903L33.7662 10.9475H37.2378V2.52627L39.8286 0L42.0831 0L49.4345 8.19364V0L54.6157 0V7.49115L56.6304 4.81898L60.8046 4.81898L62.8189 7.49115V0L68 0V13.4737L65.4097 16H62.8038L58.7175 10.5804L54.6312 16L49.5545 16L42.4189 8.04682V13.4737L39.8286 16L31.6431 16L27.9556 12.4579V13.4737L25.3653 16H21.3027L15.651 9.00941V11.672L12.8771 16L3.53613 16L0 11.8619L0 0L2.59032 0L5.18111 2.52627Z" fill="white"/>
</svg>
